{
    "asset" : {
        "generator" : "Khronos glTF Blender I/O v1.7.33",
        "version" : "2.0"
    },
    "scene" : 0,
    "scenes" : [
        {
            "name" : "Scene",
            "nodes" : [
                0
            ]
        }
    ],
    "nodes" : [
        {
            "mesh" : 0,
            "name" : "miniQ",
            "rotation" : [
                0.7071068286895752,
                0,
                0,
                0.7071067094802856
            ]
        }
    ],
    "materials" : [
        {
            "doubleSided" : true,
            "name" : "lambert2SG",
            "pbrMetallicRoughness" : {
                "baseColorTexture" : {
                    "index" : 0
                },
                "metallicFactor" : 0
            }
        },
        {
            "alphaMode" : "BLEND",
            "doubleSided" : true,
            "name" : "lambert3SG",
            "pbrMetallicRoughness" : {
                "baseColorFactor" : [
                    0.009999999776482582,
                    0.009999999776482582,
                    0.009999999776482582,
                    1
                ],
                "metallicFactor" : 0
            }
        },
        {
            "alphaMode" : "BLEND",
            "doubleSided" : true,
            "name" : "initialShadingGroup",
            "pbrMetallicRoughness" : {
                "baseColorFactor" : [
                    0.10000000149011612,
                    0.07000000029802322,
                    0.029999999329447746,
                    1
                ],
                "metallicFactor" : 0
            }
        }
    ],
    "meshes" : [
        {
            "name" : "miniQ",
            "primitives" : [
                {
                    "attributes" : {
                        "POSITION" : 0,
                        "NORMAL" : 1,
                        "TEXCOORD_0" : 2
                    },
                    "indices" : 3,
                    "material" : 0
                },
                {
                    "attributes" : {
                        "POSITION" : 4,
                        "NORMAL" : 5,
                        "TEXCOORD_0" : 6
                    },
                    "indices" : 7,
                    "material" : 1
                },
                {
                    "attributes" : {
                        "POSITION" : 8,
                        "NORMAL" : 9,
                        "TEXCOORD_0" : 10
                    },
                    "indices" : 11,
                    "material" : 2
                }
            ]
        }
    ],
    "textures" : [
        {
            "sampler" : 0,
            "source" : 0
        }
    ],
    "images" : [
        {
            "mimeType" : "image/png",
            "name" : "123",
            "uri" : "123.png"
        }
    ],
    "accessors" : [
        {
            "bufferView" : 0,
            "componentType" : 5126,
            "count" : 3535,
            "max" : [
                0.9979869723320007,
                0.7249330282211304,
                -0.059790998697280884
            ],
            "min" : [
                -0.9139459729194641,
                -0.9100610017776489,
                -2.2785298824310303
            ],
            "type" : "VEC3"
        },
        {
            "bufferView" : 1,
            "componentType" : 5126,
            "count" : 3535,
            "type" : "VEC3"
        },
        {
            "bufferView" : 2,
            "componentType" : 5126,
            "count" : 3535,
            "type" : "VEC2"
        },
        {
            "bufferView" : 3,
            "componentType" : 5123,
            "count" : 18432,
            "type" : "SCALAR"
        },
        {
            "bufferView" : 4,
            "componentType" : 5126,
            "count" : 368,
            "max" : [
                0.7367969751358032,
                0.7841759920120239,
                0.01819700002670288
            ],
            "min" : [
                -0.802416980266571,
                -1.122941017150879,
                -0.9597039818763733
            ],
            "type" : "VEC3"
        },
        {
            "bufferView" : 5,
            "componentType" : 5126,
            "count" : 368,
            "type" : "VEC3"
        },
        {
            "bufferView" : 6,
            "componentType" : 5126,
            "count" : 368,
            "type" : "VEC2"
        },
        {
            "bufferView" : 7,
            "componentType" : 5123,
            "count" : 2196,
            "type" : "SCALAR"
        },
        {
            "bufferView" : 8,
            "componentType" : 5126,
            "count" : 245,
            "max" : [
                0.663096010684967,
                -0.9635440111160278,
                -0.013106999918818474
            ],
            "min" : [
                -0.05619199946522713,
                -1.2007089853286743,
                -1.0145989656448364
            ],
            "type" : "VEC3"
        },
        {
            "bufferView" : 9,
            "componentType" : 5126,
            "count" : 245,
            "type" : "VEC3"
        },
        {
            "bufferView" : 10,
            "componentType" : 5126,
            "count" : 245,
            "type" : "VEC2"
        },
        {
            "bufferView" : 11,
            "componentType" : 5123,
            "count" : 1248,
            "type" : "SCALAR"
        }
    ],
    "bufferViews" : [
        {
            "buffer" : 0,
            "byteLength" : 42420,
            "byteOffset" : 0
        },
        {
            "buffer" : 0,
            "byteLength" : 42420,
            "byteOffset" : 42420
        },
        {
            "buffer" : 0,
            "byteLength" : 28280,
            "byteOffset" : 84840
        },
        {
            "buffer" : 0,
            "byteLength" : 36864,
            "byteOffset" : 113120
        },
        {
            "buffer" : 0,
            "byteLength" : 4416,
            "byteOffset" : 149984
        },
        {
            "buffer" : 0,
            "byteLength" : 4416,
            "byteOffset" : 154400
        },
        {
            "buffer" : 0,
            "byteLength" : 2944,
            "byteOffset" : 158816
        },
        {
            "buffer" : 0,
            "byteLength" : 4392,
            "byteOffset" : 161760
        },
        {
            "buffer" : 0,
            "byteLength" : 2940,
            "byteOffset" : 166152
        },
        {
            "buffer" : 0,
            "byteLength" : 2940,
            "byteOffset" : 169092
        },
        {
            "buffer" : 0,
            "byteLength" : 1960,
            "byteOffset" : 172032
        },
        {
            "buffer" : 0,
            "byteLength" : 2496,
            "byteOffset" : 173992
        }
    ],
    "samplers" : [
        {
            "magFilter" : 9729,
            "minFilter" : 9987
        }
    ],
    "buffers" : [
        {
            "byteLength" : 176488,
            "uri" : "Miniq.bin"
        }
    ]
}
